:SAMPLES-PER-SECOND 24
:FULLY-SPECIFIED
:DEGREES
36
root  -0.972968 39.205 7.02805 -175.017 21.8487 -177.366
RightUpLeg  0.310667 -13.68 -7.88596
RightLeg  34.2843 -15.9748 -11.7436
RightFoot  -3.50692 -1.34439 19.8084
RightToes  -2.09809e-008 3.77894e-005 6.81332e-007
Spine  -13.1653 5.73502 8.4707
Spine1  10.9061 5.81892 -3.32087
HEad  -17.5923 13.3783 -9.62501
LeftShoulder1  6.96261 -12.7069 -36.8854
LeftArm  5.22027 30.5376 -34.0406
LeftForeArm  171.782 -67.734 -156.41
LeftHand  -0.107776 -2.43312 1.80232
RightShoulder  3.80761 6.40303 32.5508
RightArm  21.1074 -11.4946 39.0561
RightForeArm  148.744 76.7489 135.086
RightHand  -0.932359 8.66749 -8.05272
LeftUpLeg  -22.2878 6.98623 4.00742
LeftLeg  21.486 18.8253 8.27899
LeftFoot  -0.936698 0.286277 -3.08325
LeftToes  1.24773e-006 1.46318e-008 1.32523e-009
37
root  -1.4068 39.2761 5.97624 -177.614 14.1884 -177.646
RightUpLeg  -5.73753 -12.4621 -8.74445
RightLeg  51.1855 -12.9668 -16.9385
RightFoot  11.979 -2.46936 12.7761
RightToes  -2.09809e-008 3.77894e-005 6.81332e-007
Spine  -13.4934 6.51402 6.69305
Spine1  11.4036 6.92036 -2.81897
HEad  -14.4823 6.83131 -5.68753
LeftShoulder1  6.72694 -12.4478 -36.1254
LeftArm  7.07202 29.1279 -32.3647
LeftForeArm  171.941 -67.9952 -156.136
LeftHand  -0.174194 -2.3469 2.81028
RightShoulder  3.83973 6.41322 32.8346
RightArm  19.4598 -15.2785 36.5092
RightForeArm  148.436 76.6432 135.381
RightHand  -0.886626 8.46554 -7.78013
LeftUpLeg  -19.2424 2.42036 2.39782
LeftLeg  21.0835 15.9289 6.97909
LeftFoot  -2.44498 0.202739 -2.40294
LeftToes  1.24773e-006 1.46318e-008 1.32523e-009
38
root  -1.65244 39.2401 5.28343 179.522 7.21909 -177.044
RightUpLeg  -13.7427 -10.2684 -9.14747
RightLeg  67.7748 -3.70347 -10.2791
RightFoot  22.1566 -3.2831 11.2906
RightToes  -2.09809e-008 3.77894e-005 6.81332e-007
Spine  -11.2888 6.33221 3.92536
Spine1  10.7331 6.84078 -2.37509
HEad  -12.15 1.74776 -1.94376
LeftShoulder1  6.48487 -12.1636 -35.3658
LeftArm  7.9403 27.3914 -30.4788
LeftForeArm  171.067 -67.9607 -156.07
LeftHand  -0.293468 -2.07344 4.75725
RightShoulder  3.93734 6.53246 33.3467
RightArm  18.8855 -17.7866 34.1277
RightForeArm  147.571 76.7945 134.66
RightHand  -0.829762 8.63014 -7.2291
LeftUpLeg  -16.4408 0.209659 1.86828
LeftLeg  21.9063 11.5154 5.36955
LeftFoot  -4.55796 0.151651 -2.09463
LeftToes  1.24773e-006 1.46318e-008 1.32523e-009
39
root  -1.73528 39.2852 4.7174 176.455 -0.627213 -174.849
RightUpLeg  -22.4819 -10.7166 -9.01492
RightLeg  85.0803 0.220461 -1.30459
RightFoot  20.1932 -4.17649 15.2204
RightToes  -2.09809e-008 3.77894e-005 6.81332e-007
Spine  -9.07405 4.58917 0.894548
Spine1  11.135 4.64243 -0.0845192
HEad  -11.149 -1.65285 1.24939
LeftShoulder1  6.36224 -12.0083 -34.9968
LeftArm  7.59392 23.9973 -28.6795
LeftForeArm  169.567 -68.1201 -155.706
LeftHand  -0.331605 -1.84592 5.50203
RightShoulder  3.93816 6.54573 33.3034
RightArm  18.5266 -18.5829 33.3363
RightForeArm  148.141 77.0843 133.74
RightHand  -0.733097 9.12878 -6.23318
LeftUpLeg  -13.901 -3.98353 3.23073
LeftLeg  23.1563 7.82443 3.98646
LeftFoot  -6.2126 0.161797 -2.78098
LeftToes  1.24773e-006 1.46318e-008 1.32523e-009
40
root  -1.67522 39.4701 4.15256 172.948 -8.46396 -171.072
RightUpLeg  -32.8538 -12.5244 -8.59425
RightLeg  100.23 0.578013 -0.834766
RightFoot  18.6138 -3.73094 14.4025
RightToes  -2.09809e-008 3.77894e-005 6.81332e-007
Spine  -6.87416 2.37145 -1.6502
Spine1  11.9524 1.54485 3.4233
HEad  -10.6246 -4.11203 3.88563
LeftShoulder1  6.31116 -11.9932 -34.7118
LeftArm  7.95132 18.7361 -27.4671
LeftForeArm  168.281 -68.8768 -154.636
LeftHand  -0.300739 -1.86602 4.99339
RightShoulder  3.85941 6.4511 32.8859
RightArm  17.6782 -19.4156 33.3712
RightForeArm  148.748 76.8679 134.661
RightHand  -0.638732 9.22328 -5.45131
LeftUpLeg  -11.2152 -9.13186 6.09998
LeftLeg  23.5568 4.89041 2.66707
LeftFoot  -7.11995 0.158822 -3.14494
LeftToes  1.24773e-006 1.46318e-008 1.32523e-009
41
root  -1.41339 39.6256 3.5996 168.374 -15.2476 -166.684
RightUpLeg  -43.8718 -12.9371 -9.57788
RightLeg  109.984 1.72852 -3.38829
RightFoot  22.7709 -2.90007 9.99552
RightToes  -2.09809e-008 3.77894e-005 6.81332e-007
Spine  -2.09125 0.635029 -4.94103
Spine1  10.3859 -1.44229 7.62187
HEad  -9.68301 -6.12721 5.82066
LeftShoulder1  6.35548 -12.1044 -34.7049
LeftArm  9.90973 12.7302 -26.6399
LeftForeArm  167.102 -69.5651 -153.599
LeftHand  -0.295601 -1.96754 4.84822
RightShoulder  3.80226 6.37388 32.6105
RightArm  16.8741 -21.3878 32.7432
RightForeArm  149.317 75.9059 137.947
RightHand  -0.679856 9.06268 -5.83328
LeftUpLeg  -8.57501 -13.5507 9.47867
LeftLeg  24.2684 1.8289 1.23756
LeftFoot  -8.01588 0.129631 -2.7985
LeftToes  1.24773e-006 1.46318e-008 1.32523e-009
42
root  -1.14183 39.8477 3.08116 162.139 -21.0219 -160.762
RightUpLeg  -52.3559 -12.6304 -12.3387
RightLeg  111.801 1.82877 -3.29657
RightFoot  26.0394 -3.24049 10.09
RightToes  -2.09809e-008 3.77894e-005 6.81332e-007
Spine  4.08128 -0.743694 -6.52513
Spine1  8.11605 -4.13778 12.7942
HEad  -8.93073 -7.62887 7.18752
LeftShoulder1  6.4558 -12.2469 -34.9687
LeftArm  11.8939 6.01621 -26.3126
LeftForeArm  165.897 -70.162 -152.618
LeftHand  -0.290249 -2.43825 4.51385
RightShoulder  3.76181 6.32381 32.3948
RightArm  15.9729 -23.5107 31.7803
RightForeArm  150.812 74.9232 141.033
RightHand  -0.747041 9.00784 -6.39364
LeftUpLeg  -5.67077 -18.285 13.7326
LeftLeg  24.7611 -0.772021 -0.051026
LeftFoot  -8.19108 0.107527 -2.11514
LeftToes  1.24773e-006 1.46318e-008 1.32523e-009
43
root  -0.953728 40.1575 2.68738 155.148 -24.7066 -153.399
RightUpLeg  -57.2739 -12.562 -15.102
RightLeg  105.006 0.979624 -2.05153
RightFoot  26.1636 -4.37706 13.3932
RightToes  -2.09809e-008 3.77894e-005 6.81332e-007
Spine  8.71735 -1.79479 -5.46668
Spine1  7.74512 -6.35915 17.8673
HEad  -8.68942 -8.66952 8.32792
LeftShoulder1  6.51293 -12.3496 -35.0617
LeftArm  13.5706 -0.842254 -26.8147
LeftForeArm  164.631 -71.0668 -151.096
LeftHand  -0.213031 -3.08139 3.15579
RightShoulder  3.69585 6.22978 32.0857
RightArm  14.4037 -24.8648 31.1068
RightForeArm  152.393 73.9338 143.744
RightHand  -0.604194 8.94216 -5.26799
LeftUpLeg  -3.23768 -21.884 19.1831
LeftLeg  24.5274 -3.05734 -1.19193
LeftFoot  -7.37208 0.0819232 -1.08759
LeftToes  1.24773e-006 1.46318e-008 1.32523e-009
44
root  -0.752271 40.4455 2.40428 149.03 -26.0763 -146.722
RightUpLeg  -58.992 -12.295 -17.2378
RightLeg  90.9166 0.368643 -1.48531
RightFoot  24.9461 -4.3725 13.8249
RightToes  -2.09809e-008 3.77894e-005 6.81332e-007
Spine  12.2233 -2.48163 -3.54701
Spine1  7.7436 -7.73252 21.2229
HEad  -8.57382 -9.34092 9.64777
LeftShoulder1  6.44923 -12.3359 -34.7007
LeftArm  15.4974 -6.01261 -27.9712
LeftForeArm  163.132 -71.8847 -149.544
LeftHand  -0.141406 -3.30217 2.13194
RightShoulder  3.6074 6.09488 31.6959
RightArm  12.5079 -25.3557 30.9215
RightForeArm  152.465 72.5252 146.715
RightHand  -0.403855 8.63166 -3.72251
LeftUpLeg  -2.11804 -22.1402 24.8889
LeftLeg  24.6368 -5.54239 -2.44805
LeftFoot  -5.99445 0.0279797 0.166684
LeftToes  1.24773e-006 1.46318e-008 1.32523e-009
45
root  -0.506969 40.5844 2.07886 144.759 -26.6543 -142.562
RightUpLeg  -57.4624 -11.9227 -20.2468
RightLeg  70.1709 -1.42275 -4.9824
RightFoot  21.3663 -3.46284 12.2798
RightToes  -2.09809e-008 3.77894e-005 6.81332e-007
Spine  15.39 -2.91713 -2.56223
Spine1  6.86503 -8.14261 22.4681
HEad  -8.8324 -9.91058 10.9199
LeftShoulder1  6.52651 -12.4603 -34.8646
LeftArm  16.9831 -8.79631 -28.7471
LeftForeArm  161.819 -72.1536 -148.878
LeftHand  -0.136602 -3.18103 2.08941
RightShoulder  3.51964 5.96599 31.2773
RightArm  10.7153 -25.2148 30.9862
RightForeArm  152.437 71.082 149.304
RightHand  -0.458983 8.11888 -4.31275
LeftUpLeg  -2.01198 -20.7359 28.4589
LeftLeg  25.8947 -5.89404 -2.77253
LeftFoot  -4.73712 -0.0579436 1.49171
LeftToes  1.24773e-006 1.46318e-008 1.32523e-009
